<svg width="32" height="32" viewBox="0 0 32 32" fill="none" xmlns="http://www.w3.org/2000/svg">
<path d="M26.6667 5.33337H5.33335C3.86269 5.33337 2.66669 6.52937 2.66669 8.00004V24C2.66669 25.4707 3.86269 26.6667 5.33335 26.6667H26.6667C28.1374 26.6667 29.3334 25.4707 29.3334 24V8.00004C29.3334 6.52937 28.1374 5.33337 26.6667 5.33337ZM26.6667 8.00004V8.68137L16 16.9787L5.33335 8.68271V8.00004H26.6667ZM5.33335 24V12.0587L15.1814 19.7187C15.4148 19.9021 15.7031 20.0018 16 20.0018C16.2969 20.0018 16.5852 19.9021 16.8187 19.7187L26.6667 12.0587L26.6694 24H5.33335Z" fill="black"/>
</svg>
