<svg width="32" height="32" viewBox="0 0 32 32" fill="none" xmlns="http://www.w3.org/2000/svg">
<path d="M16.0001 18.6666C18.9414 18.6666 21.3334 16.2746 21.3334 13.3333C21.3334 10.392 18.9414 7.99996 16.0001 7.99996C13.0587 7.99996 10.6667 10.392 10.6667 13.3333C10.6667 16.2746 13.0587 18.6666 16.0001 18.6666ZM16.0001 10.6666C17.4707 10.6666 18.6667 11.8626 18.6667 13.3333C18.6667 14.804 17.4707 16 16.0001 16C14.5294 16 13.3334 14.804 13.3334 13.3333C13.3334 11.8626 14.5294 10.6666 16.0001 10.6666Z" fill="black"/>
<path d="M15.2268 29.0853C15.4524 29.2464 15.7228 29.3331 16.0001 29.3331C16.2774 29.3331 16.5478 29.2464 16.7734 29.0853C17.1788 28.7986 26.7054 21.92 26.6668 13.3333C26.6668 7.45196 21.8814 2.66663 16.0001 2.66663C10.1188 2.66663 5.33343 7.45196 5.33343 13.3266C5.29476 21.92 14.8214 28.7986 15.2268 29.0853ZM16.0001 5.33329C20.4121 5.33329 24.0001 8.92129 24.0001 13.34C24.0281 19.2573 18.1494 24.5706 16.0001 26.3133C13.8521 24.5693 7.9721 19.2546 8.0001 13.3333C8.0001 8.92129 11.5881 5.33329 16.0001 5.33329Z" fill="black"/>
</svg>
